<svg width="64" height="64" viewBox="0 0 64 64" xmlns="http://www.w3.org/2000/svg">
    <path
            d="M54.666 27.173H46.9593C40.6393 27.173 35.4927 22.0263 35.4927 15.7063V7.99967C35.4927 6.53301 34.2927 5.33301 32.826 5.33301L21.5193 5.33301C13.306 5.33301 6.66602 10.6663 6.66602 20.1863L6.66602 43.813C6.66602 53.333 13.306 58.6663 21.5193 58.6663L42.4793 58.6663C50.6927 58.6663 57.3327 53.333 57.3327 43.813V29.8397C57.3327 28.373 56.1327 27.173 54.666 27.173ZM30.746 36.0797C30.346 36.4797 29.8393 36.6663 29.3327 36.6663C28.826 36.6663 28.3193 36.4797 27.9193 36.0797L25.9993 34.1597L25.9993 45.333C25.9993 46.4263 25.0927 47.333 23.9993 47.333C22.906 47.333 21.9993 46.4263 21.9993 45.333V34.1597L20.0793 36.0797C19.306 36.853 18.026 36.853 17.2527 36.0797C16.4793 35.3063 16.4793 34.0263 17.2527 33.253L22.586 27.9197C22.7727 27.7597 22.9593 27.6263 23.1727 27.5197C23.226 27.493 23.306 27.4663 23.3593 27.4397C23.5193 27.3863 23.6793 27.3597 23.866 27.333C23.946 27.333 23.9993 27.333 24.0793 27.333C24.2927 27.333 24.506 27.3863 24.7193 27.4663C24.746 27.4663 24.746 27.4663 24.7727 27.4663C24.986 27.5463 25.1993 27.7063 25.3593 27.8663C25.386 27.893 25.4127 27.893 25.4127 27.9197L30.746 33.253C31.5193 34.0263 31.5193 35.3063 30.746 36.0797Z" fill="inherit"
    />
    <path
            d="M46.4798 23.4936C49.0132 23.5203 52.5332 23.5203 55.5465 23.5203C57.0665 23.5203 57.8665 21.7336 56.7998 20.667C52.9598 16.8003 46.0798 9.84031 42.1332 5.89364C41.0398 4.80031 39.1465 5.54697 39.1465 7.06697V16.3736C39.1465 20.267 42.4532 23.4936 46.4798 23.4936Z" fill="inherit"
    />
</svg>