<svg width="25" height="24" viewBox="0 0 25 24" xmlns="http://www.w3.org/2000/svg">
    <path d="M13.738 9.62H11.262C11.2915 9.2012 11.369 9.0441 11.425 8.97891C11.4633 8.9343 11.6519 8.75 12.5 8.75C13.3481 8.75 13.5367 8.9343 13.575 8.97891C13.631 9.0441 13.7085 9.2012 13.738 9.62Z" stroke-width="2"/>
    <path d="M12.4984 15.0999C13.106 15.0999 13.5984 14.6074 13.5984 13.9999C13.5984 13.3924 13.106 12.8999 12.4984 12.8999C11.8909 12.8999 11.3984 13.3924 11.3984 13.9999C11.3984 14.6074 11.8909 15.0999 12.4984 15.0999Z"/>
    <path d="M12.5 2C6.98 2 2.5 6.48 2.5 12C2.5 17.52 6.98 22 12.5 22C18.02 22 22.5 17.52 22.5 12C22.5 6.48 18.02 2 12.5 2ZM17.88 14.5C17.88 16.7 17.2 17.38 15 17.38H10C7.8 17.38 7.12 16.7 7.12 14.5V13.5C7.12 11.79 7.53 11 8.75 10.73V10C8.75 9.07 8.75 6.25 12.5 6.25C16.25 6.25 16.25 9.07 16.25 10V10.73C17.47 11 17.88 11.79 17.88 13.5V14.5Z"/>
</svg>