<svg width="16" height="16" viewBox="0 0 16 16" fill="none" xmlns="http://www.w3.org/2000/svg">
    <path d="M9.7984 3.18683C8.59777 3.13975 7.3962 3.12948 6.19478 3.16639L6.30043 2.52242C6.30046 2.52225 6.30049 2.52207 6.30052 2.52189C6.36043 2.15878 6.39962 2.04739 6.45104 1.98403C6.46235 1.97009 6.48775 1.94136 6.566 1.91037C6.65388 1.87557 6.82299 1.83301 7.12043 1.83301H8.8671C9.4284 1.83301 9.53044 1.98487 9.53543 1.99229C9.53552 1.99243 9.53558 1.99252 9.53561 1.99255C9.59256 2.06408 9.63064 2.18287 9.6868 2.52726L9.68678 2.52726L9.68778 2.5332L9.7984 3.18683Z" fill="#0E0E0E" stroke="#0E0E0E" stroke-width="2"/>
    <path d="M4.57546 13.8244C4.44987 13.6522 4.40442 13.388 4.36366 12.8273L3.96119 6.16699H12.0376L11.6347 12.8276C11.5939 13.3921 11.5483 13.6554 11.4234 13.8262C11.3616 13.9108 11.1321 14.1737 10.1392 14.1737H5.85918C4.86816 14.1737 4.63802 13.9102 4.57546 13.8244ZM6.88585 12.8337H9.10585C9.93147 12.8337 10.6058 12.1593 10.6058 11.3337C10.6058 10.8418 10.3665 10.4036 9.99836 10.1297C10.6651 9.97755 11.1658 9.37842 11.1658 8.66699C11.1658 7.84137 10.4915 7.16699 9.66585 7.16699H6.33252C5.5069 7.16699 4.83252 7.84137 4.83252 8.66699C4.83252 9.37661 5.3307 9.9745 5.99492 10.1285C5.62591 10.4023 5.38585 10.8411 5.38585 11.3337C5.38585 12.1593 6.06023 12.8337 6.88585 12.8337Z" fill="#0E0E0E" stroke="#0E0E0E" stroke-width="2"/>
</svg>
