<svg width="83" height="20" viewBox="0 0 83 20" fill="none" xmlns="http://www.w3.org/2000/svg">
    <g clip-path="url(#clip0_3092_109833)">
        <path
                d="M21.7544 7.08847H30.136V8.62694H26.8403V17.2754H25.0281V8.62694H21.7471V7.08847H21.7544ZM29.7779 9.89941H31.3271V11.3229H31.3563C31.4075 11.1216 31.5025 10.9275 31.6413 10.7405C31.7801 10.5536 31.9482 10.3739 32.1455 10.2229C32.3428 10.0648 32.562 9.94255 32.8032 9.8419C33.0443 9.74844 33.2928 9.69812 33.5412 9.69812C33.7312 9.69812 33.8701 9.70531 33.9431 9.7125C34.0162 9.71969 34.0893 9.73407 34.1697 9.74125V11.3085C34.0527 11.2869 33.9358 11.2725 33.8116 11.2582C33.6874 11.2438 33.5705 11.2366 33.4535 11.2366C33.1759 11.2366 32.9128 11.2941 32.6643 11.4019C32.4159 11.5098 32.204 11.6751 32.0213 11.8836C31.8386 12.0993 31.6924 12.3581 31.5828 12.6744C31.4732 12.9907 31.4221 13.3502 31.4221 13.76V17.2683H29.7706V9.89941H29.7779ZM41.7621 17.2754H40.1398V16.2474H40.1106C39.906 16.6212 39.6064 16.916 39.2045 17.1389C38.8026 17.3617 38.3933 17.4767 37.9768 17.4767C36.9903 17.4767 36.2742 17.2395 35.8357 16.7578C35.3973 16.2762 35.1781 15.5501 35.1781 14.5795V9.89941H36.8296V14.4214C36.8296 15.0684 36.9538 15.5285 37.2095 15.7945C37.458 16.0605 37.8161 16.1971 38.2691 16.1971C38.6199 16.1971 38.9049 16.1468 39.1387 16.0389C39.3725 15.9311 39.5625 15.7945 39.7014 15.6148C39.8475 15.4422 39.9498 15.2265 40.0156 14.9821C40.0813 14.7377 40.1106 14.4717 40.1106 14.1841V9.9066H41.7621V17.2754ZM44.5754 14.9102C44.6266 15.3847 44.8092 15.7154 45.1235 15.9095C45.445 16.0964 45.825 16.1971 46.2707 16.1971C46.4242 16.1971 46.5996 16.1827 46.7969 16.1611C46.9942 16.1396 47.1841 16.0892 47.3522 16.0245C47.5276 15.9598 47.6664 15.8592 47.7834 15.7298C47.893 15.6004 47.9441 15.435 47.9368 15.2266C47.9295 15.0181 47.8491 14.8455 47.703 14.7161C47.5568 14.5795 47.3741 14.4789 47.1476 14.3926C46.9211 14.3135 46.6653 14.2416 46.373 14.1841C46.0807 14.1266 45.7884 14.0619 45.4888 13.9972C45.1819 13.9325 44.8823 13.8462 44.5973 13.7528C44.3123 13.6593 44.0566 13.5299 43.83 13.3646C43.6035 13.2064 43.4208 12.9979 43.2893 12.7463C43.1505 12.4947 43.0847 12.1856 43.0847 11.8117C43.0847 11.4091 43.187 11.0784 43.3843 10.8052C43.5816 10.5321 43.8374 10.3164 44.137 10.151C44.4439 9.98568 44.78 9.87066 45.1527 9.79877C45.5254 9.73407 45.8834 9.69812 46.2196 9.69812C46.6069 9.69812 46.9795 9.74125 47.3303 9.82034C47.6811 9.89942 48.0026 10.0288 48.2876 10.2157C48.5726 10.3955 48.8064 10.6327 48.9964 10.9203C49.1864 11.2078 49.3033 11.5601 49.3544 11.9699H47.6299C47.5495 11.5817 47.3741 11.3157 47.0892 11.1863C46.8042 11.0497 46.4753 10.985 46.11 10.985C45.993 10.985 45.8542 10.9922 45.6934 11.0137C45.5327 11.0353 45.3865 11.0712 45.2404 11.1216C45.1015 11.1719 44.9846 11.251 44.8823 11.3516C44.7873 11.4523 44.7362 11.5817 44.7362 11.747C44.7362 11.9483 44.8092 12.1065 44.9481 12.2287C45.0869 12.3509 45.2696 12.4516 45.4961 12.5378C45.7227 12.6169 45.9784 12.6888 46.2707 12.7463C46.563 12.8038 46.8626 12.8685 47.1695 12.9332C47.4691 12.9979 47.7614 13.0842 48.0537 13.1777C48.346 13.2711 48.6018 13.4005 48.8283 13.5659C49.0548 13.7312 49.2375 13.9325 49.3764 14.1769C49.5152 14.4214 49.5883 14.7305 49.5883 15.09C49.5883 15.5285 49.486 15.8951 49.2814 16.2043C49.0768 16.5062 48.8137 16.7578 48.4922 16.9447C48.1706 17.1317 47.8053 17.2754 47.4107 17.3617C47.0161 17.448 46.6215 17.4911 46.2342 17.4911C45.7592 17.4911 45.3208 17.4408 44.9189 17.333C44.5169 17.2251 44.1662 17.067 43.8739 16.8585C43.5816 16.6428 43.3478 16.3768 43.1797 16.0605C43.0116 15.7442 42.9239 15.3631 42.9093 14.9246H44.5754V14.9102ZM50.0267 9.89941H51.2763V7.68517H52.9278V9.89941H54.4185V11.1144H52.9278V15.054C52.9278 15.2265 52.9351 15.3703 52.9497 15.4997C52.9643 15.622 53.0008 15.7298 53.052 15.8161C53.1031 15.9023 53.1835 15.967 53.2931 16.0102C53.4027 16.0533 53.5416 16.0749 53.7316 16.0749C53.8485 16.0749 53.9654 16.0749 54.0823 16.0677C54.1993 16.0605 54.3162 16.0461 54.4331 16.0174V17.2754C54.2504 17.297 54.0677 17.3114 53.8997 17.333C53.7243 17.3545 53.5489 17.3617 53.3662 17.3617C52.9278 17.3617 52.577 17.3186 52.3139 17.2395C52.0509 17.1604 51.839 17.0382 51.6928 16.88C51.5394 16.7219 51.4444 16.5278 51.3859 16.2905C51.3348 16.0533 51.2982 15.7801 51.2909 15.4782V11.1288H50.0413V9.89941H50.0267ZM55.5877 9.89941H57.1514V10.8987H57.1807C57.4145 10.4674 57.736 10.1654 58.1526 9.9785C58.5691 9.79158 59.0148 9.69812 59.5044 9.69812C60.0963 9.69812 60.6079 9.79877 61.0463 10.0073C61.4847 10.2085 61.8501 10.4889 62.1424 10.8484C62.4347 11.2078 62.6466 11.6248 62.7928 12.0993C62.9389 12.5738 63.012 13.0842 63.012 13.6234C63.012 14.1194 62.9462 14.6011 62.8147 15.0612C62.6832 15.5285 62.4859 15.9383 62.2228 16.2977C61.9597 16.6572 61.6236 16.9376 61.2144 17.1532C60.8051 17.3689 60.3302 17.4767 59.7748 17.4767C59.5337 17.4767 59.2925 17.4552 59.0514 17.412C58.8102 17.3689 58.5764 17.297 58.3572 17.2036C58.1379 17.1101 57.926 16.9879 57.7433 16.8369C57.5534 16.6859 57.3999 16.5134 57.2684 16.3193H57.2391V20.0001H55.5877V9.89941ZM61.3605 13.5946C61.3605 13.2639 61.3167 12.9404 61.229 12.6241C61.1413 12.3078 61.0098 12.0346 60.8344 11.7902C60.659 11.5457 60.4398 11.3516 60.184 11.2078C59.921 11.0641 59.6213 10.985 59.2852 10.985C58.591 10.985 58.0649 11.2222 57.7141 11.6967C57.3634 12.1712 57.188 12.8038 57.188 13.5946C57.188 13.9685 57.2318 14.3135 57.3268 14.6299C57.4218 14.9462 57.5534 15.2194 57.7433 15.4494C57.926 15.6795 58.1453 15.8592 58.401 15.9886C58.6568 16.1252 58.9564 16.1899 59.2925 16.1899C59.6725 16.1899 59.9867 16.1108 60.2498 15.9598C60.5129 15.8089 60.7248 15.6076 60.8928 15.3703C61.0609 15.1259 61.1851 14.8527 61.2582 14.5436C61.324 14.2345 61.3605 13.9181 61.3605 13.5946ZM64.2762 7.08847H65.9276V8.62694H64.2762V7.08847ZM64.2762 9.89941H65.9276V17.2754H64.2762V9.89941ZM67.4037 7.08847H69.0552V17.2754H67.4037V7.08847ZM74.1192 17.4767C73.52 17.4767 72.9866 17.3761 72.5189 17.182C72.0513 16.9879 71.6566 16.7147 71.3278 16.3768C71.0063 16.0317 70.7578 15.622 70.5898 15.1475C70.4217 14.673 70.334 14.1482 70.334 13.5802C70.334 13.0195 70.4217 12.5019 70.5898 12.0274C70.7578 11.5529 71.0063 11.1431 71.3278 10.7981C71.6493 10.453 72.0513 10.187 72.5189 9.99287C72.9866 9.79877 73.52 9.69812 74.1192 9.69812C74.7184 9.69812 75.2519 9.79877 75.7196 9.99287C76.1872 10.187 76.5818 10.4602 76.9107 10.7981C77.2322 11.1431 77.4806 11.5529 77.6487 12.0274C77.8168 12.5019 77.9045 13.0195 77.9045 13.5802C77.9045 14.1482 77.8168 14.673 77.6487 15.1475C77.4806 15.622 77.2322 16.0317 76.9107 16.3768C76.5891 16.7219 76.1872 16.9879 75.7196 17.182C75.2519 17.3761 74.7184 17.4767 74.1192 17.4767ZM74.1192 16.1899C74.4846 16.1899 74.8061 16.1108 75.0765 15.9598C75.3469 15.8089 75.5661 15.6076 75.7415 15.3631C75.9169 15.1187 76.0411 14.8383 76.1288 14.5292C76.2092 14.2201 76.253 13.9038 76.253 13.5802C76.253 13.2639 76.2092 12.9548 76.1288 12.6385C76.0484 12.3221 75.9169 12.049 75.7415 11.8045C75.5661 11.5601 75.3469 11.366 75.0765 11.215C74.8061 11.0641 74.4846 10.985 74.1192 10.985C73.7539 10.985 73.4323 11.0641 73.162 11.215C72.8916 11.366 72.6724 11.5673 72.497 11.8045C72.3216 12.049 72.1974 12.3221 72.1097 12.6385C72.0293 12.9548 71.9855 13.2639 71.9855 13.5802C71.9855 13.9038 72.0293 14.2201 72.1097 14.5292C72.1901 14.8383 72.3216 15.1187 72.497 15.3631C72.6724 15.6076 72.8916 15.8089 73.162 15.9598C73.4323 16.118 73.7539 16.1899 74.1192 16.1899ZM78.3868 9.89941H79.6363V7.68517H81.2878V9.89941H82.7785V11.1144H81.2878V15.054C81.2878 15.2265 81.2951 15.3703 81.3097 15.4997C81.3243 15.622 81.3609 15.7298 81.412 15.8161C81.4632 15.9023 81.5436 15.967 81.6532 16.0102C81.7628 16.0533 81.9016 16.0749 82.0916 16.0749C82.2085 16.0749 82.3255 16.0749 82.4424 16.0677C82.5593 16.0605 82.6762 16.0461 82.7931 16.0174V17.2754C82.6104 17.297 82.4278 17.3114 82.2597 17.333C82.0843 17.3545 81.9089 17.3617 81.7263 17.3617C81.2878 17.3617 80.9371 17.3186 80.674 17.2395C80.4109 17.1604 80.199 17.0382 80.0529 16.88C79.8994 16.7219 79.8044 16.5278 79.7459 16.2905C79.6948 16.0533 79.6583 15.7801 79.651 15.4782V11.1288H78.4014V9.89941H78.3868Z"
                fill="#0E0E0E"
        />
        <path
                d="M19.825 7.08847H12.2545L9.91615 0L7.57047 7.08847L0 7.08128L6.13091 11.4666L3.78523 18.5479L9.91615 14.1697L16.0398 18.5479L13.7014 11.4666L19.825 7.08847Z"
                fill="#00B67A"
        />
        <path d="M14.2262 13.0699L13.7 11.4667L9.91479 14.1698L14.2262 13.0699Z" fill="#005128" />
    </g>
    <defs>
        <clipPath id="clip0_3092_109833">
            <rect width="82.7783" height="20.0001" fill="white" />
        </clipPath>
    </defs>
</svg>